<svg id="visual" viewBox="0 0 900 600" width="900" height="600" xmlns="http://www.w3.org/2000/svg" xmlns:xlink="http://www.w3.org/1999/xlink" version="1.1"><rect x="0" y="0" width="900" height="600" fill="#b0c6e1"></rect><path d="M420 0L407 14.3C394 28.7 368 57.3 368.3 85.8C368.7 114.3 395.3 142.7 388.7 171.2C382 199.7 342 228.3 359 257C376 285.7 450 314.3 452.5 343C455 371.7 386 400.3 359 428.8C332 457.3 347 485.7 347.5 514.2C348 542.7 334 571.3 327 585.7L320 600L0 600L0 585.7C0 571.3 0 542.7 0 514.2C0 485.7 0 457.3 0 428.8C0 400.3 0 371.7 0 343C0 314.3 0 285.7 0 257C0 228.3 0 199.7 0 171.2C0 142.7 0 114.3 0 85.8C0 57.3 0 28.7 0 14.3L0 0Z" fill="#7190c0" stroke-linecap="round" stroke-linejoin="miter"></path></svg>