<svg id="visual" viewBox="0 0 900 600" width="900" height="600" xmlns="http://www.w3.org/2000/svg" xmlns:xlink="http://www.w3.org/1999/xlink" version="1.1"><rect x="0" y="0" width="900" height="600" fill="#b0c6e1"></rect><path d="M238 0L231.8 14.3C225.7 28.7 213.3 57.3 212.3 85.8C211.3 114.3 221.7 142.7 231.5 171.2C241.3 199.7 250.7 228.3 238.7 257C226.7 285.7 193.3 314.3 196.8 343C200.3 371.7 240.7 400.3 262.5 428.8C284.3 457.3 287.7 485.7 276.7 514.2C265.7 542.7 240.3 571.3 227.7 585.7L215 600L0 600L0 585.7C0 571.3 0 542.7 0 514.2C0 485.7 0 457.3 0 428.8C0 400.3 0 371.7 0 343C0 314.3 0 285.7 0 257C0 228.3 0 199.7 0 171.2C0 142.7 0 114.3 0 85.8C0 57.3 0 28.7 0 14.3L0 0Z" fill="#7190c0" stroke-linecap="round" stroke-linejoin="miter"></path></svg>